<mxfile host="app.diagrams.net" agent="Mozilla/5.0 (Windows NT 10.0; Win64; x64) AppleWebKit/537.36 (KHTML, like Gecko) Chrome/133.0.0.0 Safari/537.36" version="26.0.14">
  <diagram name="P치gina-1" id="AD1sbmy76uVQkkUT61QY">
    <mxGraphModel dx="1912" dy="1008" grid="1" gridSize="10" guides="1" tooltips="1" connect="1" arrows="1" fold="1" page="1" pageScale="1" pageWidth="827" pageHeight="1169" math="0" shadow="0">
      <root>
        <mxCell id="0" />
        <mxCell id="1" parent="0" />
        <mxCell id="kB9tlj2WmAt0og6U4Ecw-2" value="" style="group" vertex="1" connectable="0" parent="1">
          <mxGeometry x="100" y="100" width="1570" height="940" as="geometry" />
        </mxCell>
        <mxCell id="kB9tlj2WmAt0og6U4Ecw-3" value="" style="rounded=0;whiteSpace=wrap;html=1;" vertex="1" parent="kB9tlj2WmAt0og6U4Ecw-2">
          <mxGeometry width="1570" height="940" as="geometry" />
        </mxCell>
        <mxCell id="kB9tlj2WmAt0og6U4Ecw-4" value="" style="group" vertex="1" connectable="0" parent="kB9tlj2WmAt0og6U4Ecw-2">
          <mxGeometry x="60" y="100" width="1400" height="720" as="geometry" />
        </mxCell>
        <mxCell id="kB9tlj2WmAt0og6U4Ecw-5" value="" style="rounded=0;whiteSpace=wrap;html=1;" vertex="1" parent="kB9tlj2WmAt0og6U4Ecw-4">
          <mxGeometry x="230" y="30" width="1170" height="690" as="geometry" />
        </mxCell>
        <mxCell id="kB9tlj2WmAt0og6U4Ecw-6" value="Actor" style="shape=umlActor;verticalLabelPosition=bottom;verticalAlign=top;html=1;outlineConnect=0;" vertex="1" parent="kB9tlj2WmAt0og6U4Ecw-4">
          <mxGeometry y="402.5" width="30" height="60" as="geometry" />
        </mxCell>
        <mxCell id="kB9tlj2WmAt0og6U4Ecw-7" value="" style="outlineConnect=0;dashed=0;verticalLabelPosition=bottom;verticalAlign=top;align=center;html=1;shape=mxgraph.aws3.ec2;fillColor=#F58534;gradientColor=none;" vertex="1" parent="kB9tlj2WmAt0og6U4Ecw-4">
          <mxGeometry x="210" width="100" height="106" as="geometry" />
        </mxCell>
        <mxCell id="kB9tlj2WmAt0og6U4Ecw-8" value="" style="outlineConnect=0;dashed=0;verticalLabelPosition=bottom;verticalAlign=top;align=center;html=1;shape=mxgraph.aws3.management_console;fillColor=#F58534;gradientColor=none;" vertex="1" parent="kB9tlj2WmAt0og6U4Ecw-4">
          <mxGeometry x="110" y="400.5" width="63" height="63" as="geometry" />
        </mxCell>
        <mxCell id="kB9tlj2WmAt0og6U4Ecw-9" style="edgeStyle=orthogonalEdgeStyle;rounded=0;orthogonalLoop=1;jettySize=auto;html=1;entryX=0;entryY=0.5;entryDx=0;entryDy=0;entryPerimeter=0;" edge="1" parent="kB9tlj2WmAt0og6U4Ecw-4" source="kB9tlj2WmAt0og6U4Ecw-6" target="kB9tlj2WmAt0og6U4Ecw-8">
          <mxGeometry relative="1" as="geometry" />
        </mxCell>
        <mxCell id="kB9tlj2WmAt0og6U4Ecw-10" style="edgeStyle=orthogonalEdgeStyle;rounded=0;orthogonalLoop=1;jettySize=auto;html=1;entryX=0;entryY=0.5;entryDx=0;entryDy=0;" edge="1" parent="kB9tlj2WmAt0og6U4Ecw-4" source="kB9tlj2WmAt0og6U4Ecw-11" target="kB9tlj2WmAt0og6U4Ecw-14">
          <mxGeometry relative="1" as="geometry" />
        </mxCell>
        <mxCell id="kB9tlj2WmAt0og6U4Ecw-11" value="" style="outlineConnect=0;dashed=0;verticalLabelPosition=bottom;verticalAlign=top;align=center;html=1;shape=mxgraph.aws3.application_load_balancer;fillColor=#F58534;gradientColor=none;" vertex="1" parent="kB9tlj2WmAt0og6U4Ecw-4">
          <mxGeometry x="270" y="396" width="69" height="72" as="geometry" />
        </mxCell>
        <mxCell id="kB9tlj2WmAt0og6U4Ecw-12" style="edgeStyle=orthogonalEdgeStyle;rounded=0;orthogonalLoop=1;jettySize=auto;html=1;entryX=0;entryY=0.5;entryDx=0;entryDy=0;entryPerimeter=0;" edge="1" parent="kB9tlj2WmAt0og6U4Ecw-4" source="kB9tlj2WmAt0og6U4Ecw-8" target="kB9tlj2WmAt0og6U4Ecw-11">
          <mxGeometry relative="1" as="geometry" />
        </mxCell>
        <mxCell id="kB9tlj2WmAt0og6U4Ecw-13" style="edgeStyle=orthogonalEdgeStyle;rounded=0;orthogonalLoop=1;jettySize=auto;html=1;entryX=0;entryY=0.5;entryDx=0;entryDy=0;" edge="1" parent="kB9tlj2WmAt0og6U4Ecw-4" source="kB9tlj2WmAt0og6U4Ecw-14" target="kB9tlj2WmAt0og6U4Ecw-34">
          <mxGeometry relative="1" as="geometry" />
        </mxCell>
        <mxCell id="kB9tlj2WmAt0og6U4Ecw-14" value="Servicio Autenticaci칩n&lt;div&gt;Autorizaci칩n&lt;/div&gt;&lt;div&gt;&lt;br&gt;&lt;/div&gt;&lt;div&gt;&lt;br&gt;&lt;/div&gt;&lt;div&gt;&lt;br&gt;&lt;/div&gt;&lt;div&gt;&lt;br&gt;&lt;/div&gt;&lt;div&gt;&lt;br&gt;&lt;/div&gt;" style="html=1;whiteSpace=wrap;" vertex="1" parent="kB9tlj2WmAt0og6U4Ecw-4">
          <mxGeometry x="390" y="369.5" width="140" height="124" as="geometry" />
        </mxCell>
        <mxCell id="kB9tlj2WmAt0og6U4Ecw-15" value="APP" style="shape=module;align=left;spacingLeft=20;align=center;verticalAlign=top;whiteSpace=wrap;html=1;" vertex="1" parent="kB9tlj2WmAt0og6U4Ecw-4">
          <mxGeometry x="410" y="430" width="100" height="50" as="geometry" />
        </mxCell>
        <mxCell id="kB9tlj2WmAt0og6U4Ecw-16" style="edgeStyle=orthogonalEdgeStyle;rounded=0;orthogonalLoop=1;jettySize=auto;html=1;entryX=0.25;entryY=0;entryDx=0;entryDy=0;" edge="1" parent="kB9tlj2WmAt0og6U4Ecw-4" source="kB9tlj2WmAt0og6U4Ecw-17" target="kB9tlj2WmAt0og6U4Ecw-37">
          <mxGeometry relative="1" as="geometry" />
        </mxCell>
        <mxCell id="kB9tlj2WmAt0og6U4Ecw-17" value="&lt;div&gt;Servicio de integraci칩n bancaria&lt;/div&gt;&lt;div&gt;&lt;br&gt;&lt;/div&gt;&lt;div&gt;&lt;br&gt;&lt;/div&gt;&lt;div&gt;&lt;br&gt;&lt;/div&gt;&lt;div&gt;&lt;br&gt;&lt;/div&gt;&lt;div&gt;&lt;br&gt;&lt;/div&gt;" style="html=1;whiteSpace=wrap;" vertex="1" parent="kB9tlj2WmAt0og6U4Ecw-4">
          <mxGeometry x="810" y="215" width="140" height="124" as="geometry" />
        </mxCell>
        <mxCell id="kB9tlj2WmAt0og6U4Ecw-18" value="APP" style="shape=module;align=left;spacingLeft=20;align=center;verticalAlign=top;whiteSpace=wrap;html=1;" vertex="1" parent="kB9tlj2WmAt0og6U4Ecw-4">
          <mxGeometry x="830" y="275.5" width="100" height="50" as="geometry" />
        </mxCell>
        <mxCell id="kB9tlj2WmAt0og6U4Ecw-19" style="edgeStyle=orthogonalEdgeStyle;rounded=0;orthogonalLoop=1;jettySize=auto;html=1;entryX=0;entryY=0.5;entryDx=0;entryDy=0;" edge="1" parent="kB9tlj2WmAt0og6U4Ecw-4" source="kB9tlj2WmAt0og6U4Ecw-20" target="kB9tlj2WmAt0og6U4Ecw-37">
          <mxGeometry relative="1" as="geometry" />
        </mxCell>
        <mxCell id="kB9tlj2WmAt0og6U4Ecw-101" style="edgeStyle=orthogonalEdgeStyle;rounded=0;orthogonalLoop=1;jettySize=auto;html=1;entryX=0.5;entryY=0;entryDx=0;entryDy=0;" edge="1" parent="kB9tlj2WmAt0og6U4Ecw-4" source="kB9tlj2WmAt0og6U4Ecw-20" target="kB9tlj2WmAt0og6U4Ecw-24">
          <mxGeometry relative="1" as="geometry" />
        </mxCell>
        <mxCell id="kB9tlj2WmAt0og6U4Ecw-20" value="&lt;div&gt;Servicio de control de versiones&lt;/div&gt;&lt;div&gt;&lt;br&gt;&lt;/div&gt;&lt;div&gt;&lt;br&gt;&lt;/div&gt;&lt;div&gt;&lt;br&gt;&lt;/div&gt;&lt;div&gt;&lt;br&gt;&lt;/div&gt;&lt;div&gt;&lt;br&gt;&lt;/div&gt;" style="html=1;whiteSpace=wrap;" vertex="1" parent="kB9tlj2WmAt0og6U4Ecw-4">
          <mxGeometry x="810" y="370" width="140" height="124" as="geometry" />
        </mxCell>
        <mxCell id="kB9tlj2WmAt0og6U4Ecw-21" value="APP" style="shape=module;align=left;spacingLeft=20;align=center;verticalAlign=top;whiteSpace=wrap;html=1;" vertex="1" parent="kB9tlj2WmAt0og6U4Ecw-4">
          <mxGeometry x="830" y="430.5" width="100" height="50" as="geometry" />
        </mxCell>
        <mxCell id="kB9tlj2WmAt0og6U4Ecw-22" value="" style="shape=image;html=1;verticalAlign=top;verticalLabelPosition=bottom;labelBackgroundColor=#ffffff;imageAspect=0;aspect=fixed;image=https://cdn1.iconfinder.com/data/icons/unicons-line-vol-3/24/docker-128.png" vertex="1" parent="kB9tlj2WmAt0og6U4Ecw-4">
          <mxGeometry x="360" y="340" width="56" height="56" as="geometry" />
        </mxCell>
        <mxCell id="kB9tlj2WmAt0og6U4Ecw-23" style="edgeStyle=orthogonalEdgeStyle;rounded=0;orthogonalLoop=1;jettySize=auto;html=1;entryX=0.25;entryY=1;entryDx=0;entryDy=0;" edge="1" parent="kB9tlj2WmAt0og6U4Ecw-4" source="kB9tlj2WmAt0og6U4Ecw-24" target="kB9tlj2WmAt0og6U4Ecw-37">
          <mxGeometry relative="1" as="geometry" />
        </mxCell>
        <mxCell id="kB9tlj2WmAt0og6U4Ecw-24" value="&lt;div&gt;Servicio de almacenamiento&lt;/div&gt;&lt;div&gt;&lt;br&gt;&lt;/div&gt;&lt;div&gt;&lt;br&gt;&lt;/div&gt;&lt;div&gt;&lt;br&gt;&lt;/div&gt;&lt;div&gt;&lt;br&gt;&lt;/div&gt;&lt;div&gt;&lt;br&gt;&lt;/div&gt;" style="html=1;whiteSpace=wrap;" vertex="1" parent="kB9tlj2WmAt0og6U4Ecw-4">
          <mxGeometry x="810" y="524" width="140" height="124" as="geometry" />
        </mxCell>
        <mxCell id="kB9tlj2WmAt0og6U4Ecw-25" value="APP" style="shape=module;align=left;spacingLeft=20;align=center;verticalAlign=top;whiteSpace=wrap;html=1;" vertex="1" parent="kB9tlj2WmAt0og6U4Ecw-4">
          <mxGeometry x="830" y="584.5" width="100" height="50" as="geometry" />
        </mxCell>
        <mxCell id="kB9tlj2WmAt0og6U4Ecw-26" value="" style="outlineConnect=0;dashed=0;verticalLabelPosition=bottom;verticalAlign=top;align=center;html=1;shape=mxgraph.aws3.rds;fillColor=#2E73B8;gradientColor=none;" vertex="1" parent="kB9tlj2WmAt0og6U4Ecw-4">
          <mxGeometry x="790" y="506" width="36" height="42" as="geometry" />
        </mxCell>
        <mxCell id="kB9tlj2WmAt0og6U4Ecw-27" value="" style="shape=image;html=1;verticalAlign=top;verticalLabelPosition=bottom;labelBackgroundColor=#ffffff;imageAspect=0;aspect=fixed;image=https://cdn1.iconfinder.com/data/icons/unicons-line-vol-3/24/docker-128.png" vertex="1" parent="kB9tlj2WmAt0og6U4Ecw-4">
          <mxGeometry x="780" y="345.5" width="56" height="56" as="geometry" />
        </mxCell>
        <mxCell id="kB9tlj2WmAt0og6U4Ecw-28" value="" style="shape=image;html=1;verticalAlign=top;verticalLabelPosition=bottom;labelBackgroundColor=#ffffff;imageAspect=0;aspect=fixed;image=https://cdn1.iconfinder.com/data/icons/unicons-line-vol-3/24/docker-128.png" vertex="1" parent="kB9tlj2WmAt0og6U4Ecw-4">
          <mxGeometry x="780" y="185" width="56" height="56" as="geometry" />
        </mxCell>
        <mxCell id="kB9tlj2WmAt0og6U4Ecw-29" style="edgeStyle=orthogonalEdgeStyle;rounded=0;orthogonalLoop=1;jettySize=auto;html=1;entryX=0;entryY=0.5;entryDx=0;entryDy=0;" edge="1" parent="kB9tlj2WmAt0og6U4Ecw-4" source="kB9tlj2WmAt0og6U4Ecw-34" target="kB9tlj2WmAt0og6U4Ecw-17">
          <mxGeometry relative="1" as="geometry" />
        </mxCell>
        <mxCell id="kB9tlj2WmAt0og6U4Ecw-30" style="edgeStyle=orthogonalEdgeStyle;rounded=0;orthogonalLoop=1;jettySize=auto;html=1;entryX=0;entryY=0.5;entryDx=0;entryDy=0;" edge="1" parent="kB9tlj2WmAt0og6U4Ecw-4" source="kB9tlj2WmAt0og6U4Ecw-34" target="kB9tlj2WmAt0og6U4Ecw-20">
          <mxGeometry relative="1" as="geometry" />
        </mxCell>
        <mxCell id="kB9tlj2WmAt0og6U4Ecw-31" style="edgeStyle=orthogonalEdgeStyle;rounded=0;orthogonalLoop=1;jettySize=auto;html=1;entryX=0;entryY=0.5;entryDx=0;entryDy=0;" edge="1" parent="kB9tlj2WmAt0og6U4Ecw-4" source="kB9tlj2WmAt0og6U4Ecw-34" target="kB9tlj2WmAt0og6U4Ecw-24">
          <mxGeometry relative="1" as="geometry" />
        </mxCell>
        <mxCell id="kB9tlj2WmAt0og6U4Ecw-32" style="edgeStyle=orthogonalEdgeStyle;rounded=0;orthogonalLoop=1;jettySize=auto;html=1;entryX=0.75;entryY=1;entryDx=0;entryDy=0;exitX=0.75;exitY=1;exitDx=0;exitDy=0;" edge="1" parent="kB9tlj2WmAt0og6U4Ecw-4" source="kB9tlj2WmAt0og6U4Ecw-34" target="kB9tlj2WmAt0og6U4Ecw-37">
          <mxGeometry relative="1" as="geometry">
            <Array as="points">
              <mxPoint x="690" y="495" />
              <mxPoint x="690" y="670" />
              <mxPoint x="1135" y="670" />
            </Array>
          </mxGeometry>
        </mxCell>
        <mxCell id="kB9tlj2WmAt0og6U4Ecw-33" style="edgeStyle=orthogonalEdgeStyle;rounded=0;orthogonalLoop=1;jettySize=auto;html=1;exitX=0.25;exitY=1;exitDx=0;exitDy=0;entryX=0.5;entryY=1;entryDx=0;entryDy=0;" edge="1" parent="kB9tlj2WmAt0og6U4Ecw-4" source="kB9tlj2WmAt0og6U4Ecw-34" target="kB9tlj2WmAt0og6U4Ecw-40">
          <mxGeometry relative="1" as="geometry">
            <Array as="points">
              <mxPoint x="625" y="700" />
              <mxPoint x="1297" y="700" />
            </Array>
          </mxGeometry>
        </mxCell>
        <mxCell id="kB9tlj2WmAt0og6U4Ecw-34" value="Servicio de procesamiento de planillas&lt;div&gt;&lt;br&gt;&lt;/div&gt;&lt;div&gt;&lt;br&gt;&lt;/div&gt;&lt;div&gt;&lt;br&gt;&lt;/div&gt;&lt;div&gt;&lt;br&gt;&lt;/div&gt;&lt;div&gt;&lt;br&gt;&lt;/div&gt;" style="html=1;whiteSpace=wrap;" vertex="1" parent="kB9tlj2WmAt0og6U4Ecw-4">
          <mxGeometry x="590" y="370.5" width="140" height="124" as="geometry" />
        </mxCell>
        <mxCell id="kB9tlj2WmAt0og6U4Ecw-35" value="APP" style="shape=module;align=left;spacingLeft=20;align=center;verticalAlign=top;whiteSpace=wrap;html=1;" vertex="1" parent="kB9tlj2WmAt0og6U4Ecw-4">
          <mxGeometry x="610" y="431" width="100" height="50" as="geometry" />
        </mxCell>
        <mxCell id="kB9tlj2WmAt0og6U4Ecw-36" style="edgeStyle=orthogonalEdgeStyle;rounded=0;orthogonalLoop=1;jettySize=auto;html=1;entryX=0;entryY=0.5;entryDx=0;entryDy=0;" edge="1" parent="kB9tlj2WmAt0og6U4Ecw-4" source="kB9tlj2WmAt0og6U4Ecw-37" target="kB9tlj2WmAt0og6U4Ecw-40">
          <mxGeometry relative="1" as="geometry" />
        </mxCell>
        <mxCell id="kB9tlj2WmAt0og6U4Ecw-37" value="&lt;div&gt;Servicio de historial y auditoria&lt;/div&gt;&lt;div&gt;&lt;br&gt;&lt;/div&gt;&lt;div&gt;&lt;br&gt;&lt;/div&gt;&lt;div&gt;&lt;br&gt;&lt;/div&gt;&lt;div&gt;&lt;br&gt;&lt;/div&gt;&lt;div&gt;&lt;br&gt;&lt;/div&gt;" style="html=1;whiteSpace=wrap;" vertex="1" parent="kB9tlj2WmAt0og6U4Ecw-4">
          <mxGeometry x="1030" y="370.5" width="140" height="124" as="geometry" />
        </mxCell>
        <mxCell id="kB9tlj2WmAt0og6U4Ecw-38" value="APP" style="shape=module;align=left;spacingLeft=20;align=center;verticalAlign=top;whiteSpace=wrap;html=1;" vertex="1" parent="kB9tlj2WmAt0og6U4Ecw-4">
          <mxGeometry x="1050" y="431" width="100" height="50" as="geometry" />
        </mxCell>
        <mxCell id="kB9tlj2WmAt0og6U4Ecw-39" value="" style="shape=image;html=1;verticalAlign=top;verticalLabelPosition=bottom;labelBackgroundColor=#ffffff;imageAspect=0;aspect=fixed;image=https://cdn1.iconfinder.com/data/icons/unicons-line-vol-3/24/docker-128.png" vertex="1" parent="kB9tlj2WmAt0og6U4Ecw-4">
          <mxGeometry x="1000" y="344.5" width="56" height="56" as="geometry" />
        </mxCell>
        <mxCell id="kB9tlj2WmAt0og6U4Ecw-40" value="&lt;div&gt;Servicio de generaci칩n de reportes&lt;/div&gt;&lt;div&gt;&lt;br&gt;&lt;/div&gt;&lt;div&gt;&lt;br&gt;&lt;/div&gt;&lt;div&gt;&lt;br&gt;&lt;/div&gt;&lt;div&gt;&lt;br&gt;&lt;/div&gt;&lt;div&gt;&lt;br&gt;&lt;/div&gt;" style="html=1;whiteSpace=wrap;" vertex="1" parent="kB9tlj2WmAt0og6U4Ecw-4">
          <mxGeometry x="1227" y="370.5" width="140" height="124" as="geometry" />
        </mxCell>
        <mxCell id="kB9tlj2WmAt0og6U4Ecw-41" value="APP" style="shape=module;align=left;spacingLeft=20;align=center;verticalAlign=top;whiteSpace=wrap;html=1;" vertex="1" parent="kB9tlj2WmAt0og6U4Ecw-4">
          <mxGeometry x="1247" y="431" width="100" height="50" as="geometry" />
        </mxCell>
        <mxCell id="kB9tlj2WmAt0og6U4Ecw-42" value="" style="shape=image;html=1;verticalAlign=top;verticalLabelPosition=bottom;labelBackgroundColor=#ffffff;imageAspect=0;aspect=fixed;image=https://cdn1.iconfinder.com/data/icons/unicons-line-vol-3/24/docker-128.png" vertex="1" parent="kB9tlj2WmAt0og6U4Ecw-4">
          <mxGeometry x="1200" y="340" width="56" height="56" as="geometry" />
        </mxCell>
        <mxCell id="kB9tlj2WmAt0og6U4Ecw-43" value="" style="shape=image;html=1;verticalAlign=top;verticalLabelPosition=bottom;labelBackgroundColor=#ffffff;imageAspect=0;aspect=fixed;image=https://cdn1.iconfinder.com/data/icons/unicons-line-vol-3/24/docker-128.png" vertex="1" parent="kB9tlj2WmAt0og6U4Ecw-4">
          <mxGeometry x="560" y="346.5" width="56" height="56" as="geometry" />
        </mxCell>
        <mxCell id="kB9tlj2WmAt0og6U4Ecw-44" style="edgeStyle=orthogonalEdgeStyle;rounded=0;orthogonalLoop=1;jettySize=auto;html=1;exitX=0.5;exitY=1;exitDx=0;exitDy=0;entryX=0.5;entryY=0;entryDx=0;entryDy=0;" edge="1" parent="kB9tlj2WmAt0og6U4Ecw-4" source="kB9tlj2WmAt0og6U4Ecw-46" target="kB9tlj2WmAt0og6U4Ecw-34">
          <mxGeometry relative="1" as="geometry" />
        </mxCell>
        <mxCell id="kB9tlj2WmAt0og6U4Ecw-45" style="edgeStyle=orthogonalEdgeStyle;rounded=0;orthogonalLoop=1;jettySize=auto;html=1;entryX=0.5;entryY=0;entryDx=0;entryDy=0;" edge="1" parent="kB9tlj2WmAt0og6U4Ecw-4" source="kB9tlj2WmAt0og6U4Ecw-46" target="kB9tlj2WmAt0og6U4Ecw-40">
          <mxGeometry relative="1" as="geometry" />
        </mxCell>
        <mxCell id="kB9tlj2WmAt0og6U4Ecw-46" value="Servicio de&lt;div&gt;notificaciones&lt;div&gt;&lt;br&gt;&lt;/div&gt;&lt;div&gt;&lt;br&gt;&lt;/div&gt;&lt;div&gt;&lt;br&gt;&lt;/div&gt;&lt;div&gt;&lt;br&gt;&lt;/div&gt;&lt;div&gt;&lt;br&gt;&lt;/div&gt;&lt;/div&gt;" style="html=1;whiteSpace=wrap;" vertex="1" parent="kB9tlj2WmAt0og6U4Ecw-4">
          <mxGeometry x="590" y="74" width="140" height="124" as="geometry" />
        </mxCell>
        <mxCell id="kB9tlj2WmAt0og6U4Ecw-47" value="APP" style="shape=module;align=left;spacingLeft=20;align=center;verticalAlign=top;whiteSpace=wrap;html=1;" vertex="1" parent="kB9tlj2WmAt0og6U4Ecw-4">
          <mxGeometry x="610" y="134.5" width="100" height="50" as="geometry" />
        </mxCell>
        <mxCell id="kB9tlj2WmAt0og6U4Ecw-48" value="" style="shape=image;html=1;verticalAlign=top;verticalLabelPosition=bottom;labelBackgroundColor=#ffffff;imageAspect=0;aspect=fixed;image=https://cdn1.iconfinder.com/data/icons/unicons-line-vol-3/24/docker-128.png" vertex="1" parent="kB9tlj2WmAt0og6U4Ecw-4">
          <mxGeometry x="560" y="50" width="56" height="56" as="geometry" />
        </mxCell>
        <mxCell id="kB9tlj2WmAt0og6U4Ecw-99" value="" style="group" vertex="1" connectable="0" parent="1">
          <mxGeometry x="110" y="1270" width="1880" height="840" as="geometry" />
        </mxCell>
        <mxCell id="kB9tlj2WmAt0og6U4Ecw-100" value="" style="rounded=0;whiteSpace=wrap;html=1;strokeWidth=0;" vertex="1" parent="kB9tlj2WmAt0og6U4Ecw-99">
          <mxGeometry x="-20" y="-30" width="1860" height="870" as="geometry" />
        </mxCell>
        <mxCell id="kB9tlj2WmAt0og6U4Ecw-91" value="" style="edgeStyle=orthogonalEdgeStyle;rounded=0;orthogonalLoop=1;jettySize=auto;html=1;entryX=0;entryY=0;entryDx=78;entryDy=240;entryPerimeter=0;" edge="1" parent="kB9tlj2WmAt0og6U4Ecw-99" source="kB9tlj2WmAt0og6U4Ecw-70" target="kB9tlj2WmAt0og6U4Ecw-79">
          <mxGeometry relative="1" as="geometry" />
        </mxCell>
        <mxCell id="zj32GYR_1dL79aitlgQu-4" value="Usuario" style="shape=umlActor;verticalLabelPosition=bottom;verticalAlign=top;html=1;outlineConnect=0;" parent="kB9tlj2WmAt0og6U4Ecw-99" vertex="1">
          <mxGeometry x="70" y="444.8181818181818" width="30" height="57.27272727272727" as="geometry" />
        </mxCell>
        <mxCell id="kB9tlj2WmAt0og6U4Ecw-50" value="Dispositivo" style="verticalAlign=top;align=left;spacingTop=8;spacingLeft=2;spacingRight=12;shape=cube;size=10;direction=south;fontStyle=4;html=1;whiteSpace=wrap;" vertex="1" parent="kB9tlj2WmAt0og6U4Ecw-99">
          <mxGeometry y="200.45454545454547" width="180" height="114.54545454545455" as="geometry" />
        </mxCell>
        <mxCell id="kB9tlj2WmAt0og6U4Ecw-52" value="Ordenador" style="shape=module;align=left;spacingLeft=20;align=center;verticalAlign=top;whiteSpace=wrap;html=1;" vertex="1" parent="kB9tlj2WmAt0og6U4Ecw-99">
          <mxGeometry x="40" y="243.4090909090909" width="100" height="47.72727272727273" as="geometry" />
        </mxCell>
        <mxCell id="kB9tlj2WmAt0og6U4Ecw-54" value="Servidor Web" style="verticalAlign=top;align=left;spacingTop=8;spacingLeft=2;spacingRight=12;shape=cube;size=10;direction=south;fontStyle=4;html=1;whiteSpace=wrap;" vertex="1" parent="kB9tlj2WmAt0og6U4Ecw-99">
          <mxGeometry x="140" y="28.636363636363637" width="180" height="114.54545454545455" as="geometry" />
        </mxCell>
        <mxCell id="kB9tlj2WmAt0og6U4Ecw-55" value="HTTP&lt;div&gt;HTTPS&lt;/div&gt;" style="edgeStyle=orthogonalEdgeStyle;rounded=0;orthogonalLoop=1;jettySize=auto;html=1;entryX=0.5;entryY=1;entryDx=0;entryDy=0;entryPerimeter=0;startArrow=classic;startFill=1;" edge="1" parent="kB9tlj2WmAt0og6U4Ecw-99" source="kB9tlj2WmAt0og6U4Ecw-50" target="kB9tlj2WmAt0og6U4Ecw-54">
          <mxGeometry relative="1" as="geometry" />
        </mxCell>
        <mxCell id="kB9tlj2WmAt0og6U4Ecw-56" value="API" style="shape=module;align=left;spacingLeft=20;align=center;verticalAlign=top;whiteSpace=wrap;html=1;" vertex="1" parent="kB9tlj2WmAt0og6U4Ecw-99">
          <mxGeometry x="180" y="71.5909090909091" width="100" height="47.72727272727273" as="geometry" />
        </mxCell>
        <mxCell id="kB9tlj2WmAt0og6U4Ecw-57" value="Servicio Balanceador" style="verticalAlign=top;align=left;spacingTop=8;spacingLeft=2;spacingRight=12;shape=cube;size=10;direction=south;fontStyle=4;html=1;whiteSpace=wrap;" vertex="1" parent="kB9tlj2WmAt0og6U4Ecw-99">
          <mxGeometry x="290" y="200.45454545454547" width="180" height="114.54545454545455" as="geometry" />
        </mxCell>
        <mxCell id="kB9tlj2WmAt0og6U4Ecw-58" value="NGINX" style="shape=module;align=left;spacingLeft=20;align=center;verticalAlign=top;whiteSpace=wrap;html=1;" vertex="1" parent="kB9tlj2WmAt0og6U4Ecw-99">
          <mxGeometry x="330" y="243.4090909090909" width="100" height="47.72727272727273" as="geometry" />
        </mxCell>
        <mxCell id="kB9tlj2WmAt0og6U4Ecw-60" value="HTTP&lt;div&gt;HTTPS&lt;/div&gt;" style="edgeStyle=orthogonalEdgeStyle;rounded=0;orthogonalLoop=1;jettySize=auto;html=1;entryX=-0.008;entryY=0.5;entryDx=0;entryDy=0;entryPerimeter=0;exitX=0;exitY=0;exitDx=55;exitDy=0;exitPerimeter=0;startArrow=classic;startFill=1;" edge="1" parent="kB9tlj2WmAt0og6U4Ecw-99" source="kB9tlj2WmAt0og6U4Ecw-54" target="kB9tlj2WmAt0og6U4Ecw-57">
          <mxGeometry relative="1" as="geometry" />
        </mxCell>
        <mxCell id="kB9tlj2WmAt0og6U4Ecw-61" value="Servicio de Autenticaci칩n/Autorizaci칩n" style="verticalAlign=top;align=left;spacingTop=8;spacingLeft=2;spacingRight=12;shape=cube;size=10;direction=south;fontStyle=4;html=1;whiteSpace=wrap;" vertex="1" parent="kB9tlj2WmAt0og6U4Ecw-99">
          <mxGeometry x="250" y="395.1818181818182" width="240" height="139.36363636363637" as="geometry" />
        </mxCell>
        <mxCell id="kB9tlj2WmAt0og6U4Ecw-62" value="Docker" style="shape=module;align=left;spacingLeft=20;align=center;verticalAlign=top;whiteSpace=wrap;html=1;" vertex="1" parent="kB9tlj2WmAt0og6U4Ecw-99">
          <mxGeometry x="260" y="434.3181818181818" width="200" height="85.9090909090909" as="geometry" />
        </mxCell>
        <mxCell id="kB9tlj2WmAt0og6U4Ecw-63" value="APP" style="shape=module;align=left;spacingLeft=20;align=center;verticalAlign=top;whiteSpace=wrap;html=1;" vertex="1" parent="kB9tlj2WmAt0og6U4Ecw-99">
          <mxGeometry x="295" y="462.9545454545455" width="155" height="47.72727272727273" as="geometry" />
        </mxCell>
        <mxCell id="kB9tlj2WmAt0og6U4Ecw-64" value="Servicio de Notificaciones" style="verticalAlign=top;align=left;spacingTop=8;spacingLeft=2;spacingRight=12;shape=cube;size=10;direction=south;fontStyle=4;html=1;whiteSpace=wrap;" vertex="1" parent="kB9tlj2WmAt0og6U4Ecw-99">
          <mxGeometry x="930" width="240" height="139.36363636363637" as="geometry" />
        </mxCell>
        <mxCell id="kB9tlj2WmAt0og6U4Ecw-65" value="Docker" style="shape=module;align=left;spacingLeft=20;align=center;verticalAlign=top;whiteSpace=wrap;html=1;" vertex="1" parent="kB9tlj2WmAt0og6U4Ecw-99">
          <mxGeometry x="940" y="39.13636363636364" width="200" height="85.9090909090909" as="geometry" />
        </mxCell>
        <mxCell id="kB9tlj2WmAt0og6U4Ecw-66" value="APP" style="shape=module;align=left;spacingLeft=20;align=center;verticalAlign=top;whiteSpace=wrap;html=1;" vertex="1" parent="kB9tlj2WmAt0og6U4Ecw-99">
          <mxGeometry x="975" y="67.77272727272728" width="155" height="47.72727272727273" as="geometry" />
        </mxCell>
        <mxCell id="kB9tlj2WmAt0og6U4Ecw-67" value="Servicio de Historial y Auditoria" style="verticalAlign=top;align=left;spacingTop=8;spacingLeft=2;spacingRight=12;shape=cube;size=10;direction=south;fontStyle=4;html=1;whiteSpace=wrap;" vertex="1" parent="kB9tlj2WmAt0og6U4Ecw-99">
          <mxGeometry x="1260" y="390.40909090909093" width="240" height="139.36363636363637" as="geometry" />
        </mxCell>
        <mxCell id="kB9tlj2WmAt0og6U4Ecw-68" value="Docker" style="shape=module;align=left;spacingLeft=20;align=center;verticalAlign=top;whiteSpace=wrap;html=1;" vertex="1" parent="kB9tlj2WmAt0og6U4Ecw-99">
          <mxGeometry x="1270" y="429.54545454545456" width="200" height="85.9090909090909" as="geometry" />
        </mxCell>
        <mxCell id="kB9tlj2WmAt0og6U4Ecw-69" value="APP" style="shape=module;align=left;spacingLeft=20;align=center;verticalAlign=top;whiteSpace=wrap;html=1;" vertex="1" parent="kB9tlj2WmAt0og6U4Ecw-99">
          <mxGeometry x="1305" y="458.1818181818182" width="155" height="47.72727272727273" as="geometry" />
        </mxCell>
        <mxCell id="kB9tlj2WmAt0og6U4Ecw-70" value="Servicio Procesamiento Planillas" style="verticalAlign=top;align=left;spacingTop=8;spacingLeft=2;spacingRight=12;shape=cube;size=10;direction=south;fontStyle=4;html=1;whiteSpace=wrap;" vertex="1" parent="kB9tlj2WmAt0og6U4Ecw-99">
          <mxGeometry x="590" y="391.3636363636364" width="240" height="139.36363636363637" as="geometry" />
        </mxCell>
        <mxCell id="kB9tlj2WmAt0og6U4Ecw-71" value="Docker" style="shape=module;align=left;spacingLeft=20;align=center;verticalAlign=top;whiteSpace=wrap;html=1;" vertex="1" parent="kB9tlj2WmAt0og6U4Ecw-99">
          <mxGeometry x="600" y="430.5" width="200" height="85.9090909090909" as="geometry" />
        </mxCell>
        <mxCell id="kB9tlj2WmAt0og6U4Ecw-72" value="APP" style="shape=module;align=left;spacingLeft=20;align=center;verticalAlign=top;whiteSpace=wrap;html=1;" vertex="1" parent="kB9tlj2WmAt0og6U4Ecw-99">
          <mxGeometry x="635" y="459.1363636363637" width="155" height="47.72727272727273" as="geometry" />
        </mxCell>
        <mxCell id="kB9tlj2WmAt0og6U4Ecw-73" value="&lt;div&gt;Servicio Ingraci칩n Bancaria&lt;/div&gt;" style="verticalAlign=top;align=left;spacingTop=8;spacingLeft=2;spacingRight=12;shape=cube;size=10;direction=south;fontStyle=4;html=1;whiteSpace=wrap;" vertex="1" parent="kB9tlj2WmAt0og6U4Ecw-99">
          <mxGeometry x="930" y="192.8181818181818" width="240" height="139.36363636363637" as="geometry" />
        </mxCell>
        <mxCell id="kB9tlj2WmAt0og6U4Ecw-74" value="Docker" style="shape=module;align=left;spacingLeft=20;align=center;verticalAlign=top;whiteSpace=wrap;html=1;" vertex="1" parent="kB9tlj2WmAt0og6U4Ecw-99">
          <mxGeometry x="940" y="231.95454545454547" width="200" height="85.9090909090909" as="geometry" />
        </mxCell>
        <mxCell id="kB9tlj2WmAt0og6U4Ecw-75" value="APP" style="shape=module;align=left;spacingLeft=20;align=center;verticalAlign=top;whiteSpace=wrap;html=1;" vertex="1" parent="kB9tlj2WmAt0og6U4Ecw-99">
          <mxGeometry x="975" y="260.5909090909091" width="155" height="47.72727272727273" as="geometry" />
        </mxCell>
        <mxCell id="kB9tlj2WmAt0og6U4Ecw-76" value="Servicio Control de Versiones" style="verticalAlign=top;align=left;spacingTop=8;spacingLeft=2;spacingRight=12;shape=cube;size=10;direction=south;fontStyle=4;html=1;whiteSpace=wrap;" vertex="1" parent="kB9tlj2WmAt0og6U4Ecw-99">
          <mxGeometry x="930" y="391.3636363636364" width="240" height="139.36363636363637" as="geometry" />
        </mxCell>
        <mxCell id="kB9tlj2WmAt0og6U4Ecw-77" value="Docker" style="shape=module;align=left;spacingLeft=20;align=center;verticalAlign=top;whiteSpace=wrap;html=1;" vertex="1" parent="kB9tlj2WmAt0og6U4Ecw-99">
          <mxGeometry x="940" y="430.5" width="200" height="85.9090909090909" as="geometry" />
        </mxCell>
        <mxCell id="kB9tlj2WmAt0og6U4Ecw-78" value="APP" style="shape=module;align=left;spacingLeft=20;align=center;verticalAlign=top;whiteSpace=wrap;html=1;" vertex="1" parent="kB9tlj2WmAt0og6U4Ecw-99">
          <mxGeometry x="975" y="459.1363636363637" width="155" height="47.72727272727273" as="geometry" />
        </mxCell>
        <mxCell id="kB9tlj2WmAt0og6U4Ecw-79" value="Servicio de Almacenamiento" style="verticalAlign=top;align=left;spacingTop=8;spacingLeft=2;spacingRight=12;shape=cube;size=10;direction=south;fontStyle=4;html=1;whiteSpace=wrap;" vertex="1" parent="kB9tlj2WmAt0og6U4Ecw-99">
          <mxGeometry x="930" y="583.2272727272727" width="240" height="139.36363636363637" as="geometry" />
        </mxCell>
        <mxCell id="kB9tlj2WmAt0og6U4Ecw-80" value="Docker" style="shape=module;align=left;spacingLeft=20;align=center;verticalAlign=top;whiteSpace=wrap;html=1;" vertex="1" parent="kB9tlj2WmAt0og6U4Ecw-99">
          <mxGeometry x="940" y="622.3636363636364" width="200" height="85.9090909090909" as="geometry" />
        </mxCell>
        <mxCell id="kB9tlj2WmAt0og6U4Ecw-81" value="MySQL" style="shape=module;align=left;spacingLeft=20;align=center;verticalAlign=top;whiteSpace=wrap;html=1;" vertex="1" parent="kB9tlj2WmAt0og6U4Ecw-99">
          <mxGeometry x="975" y="651" width="155" height="47.72727272727273" as="geometry" />
        </mxCell>
        <mxCell id="kB9tlj2WmAt0og6U4Ecw-82" value="Servicio Generaci칩n de Reportes" style="verticalAlign=top;align=left;spacingTop=8;spacingLeft=2;spacingRight=12;shape=cube;size=10;direction=south;fontStyle=4;html=1;whiteSpace=wrap;" vertex="1" parent="kB9tlj2WmAt0og6U4Ecw-99">
          <mxGeometry x="1580" y="390.40909090909093" width="240" height="139.36363636363637" as="geometry" />
        </mxCell>
        <mxCell id="kB9tlj2WmAt0og6U4Ecw-83" value="Docker" style="shape=module;align=left;spacingLeft=20;align=center;verticalAlign=top;whiteSpace=wrap;html=1;" vertex="1" parent="kB9tlj2WmAt0og6U4Ecw-99">
          <mxGeometry x="1590" y="429.54545454545456" width="200" height="85.9090909090909" as="geometry" />
        </mxCell>
        <mxCell id="kB9tlj2WmAt0og6U4Ecw-84" value="APP" style="shape=module;align=left;spacingLeft=20;align=center;verticalAlign=top;whiteSpace=wrap;html=1;" vertex="1" parent="kB9tlj2WmAt0og6U4Ecw-99">
          <mxGeometry x="1625" y="458.1818181818182" width="155" height="47.72727272727273" as="geometry" />
        </mxCell>
        <mxCell id="kB9tlj2WmAt0og6U4Ecw-85" value="HTTP&lt;div&gt;HTTPS&lt;/div&gt;" style="edgeStyle=orthogonalEdgeStyle;rounded=0;orthogonalLoop=1;jettySize=auto;html=1;exitX=0;exitY=0;exitDx=120;exitDy=95;exitPerimeter=0;entryX=0;entryY=0;entryDx=0;entryDy=115;entryPerimeter=0;startArrow=classic;startFill=1;" edge="1" parent="kB9tlj2WmAt0og6U4Ecw-99" source="kB9tlj2WmAt0og6U4Ecw-57" target="kB9tlj2WmAt0og6U4Ecw-61">
          <mxGeometry relative="1" as="geometry" />
        </mxCell>
        <mxCell id="kB9tlj2WmAt0og6U4Ecw-86" value="HTTP" style="edgeStyle=orthogonalEdgeStyle;rounded=0;orthogonalLoop=1;jettySize=auto;html=1;entryX=0.502;entryY=1.007;entryDx=0;entryDy=0;entryPerimeter=0;startArrow=none;startFill=0;" edge="1" parent="kB9tlj2WmAt0og6U4Ecw-99" source="kB9tlj2WmAt0og6U4Ecw-67" target="kB9tlj2WmAt0og6U4Ecw-82">
          <mxGeometry relative="1" as="geometry" />
        </mxCell>
        <mxCell id="kB9tlj2WmAt0og6U4Ecw-87" value="HTTP" style="edgeStyle=orthogonalEdgeStyle;rounded=0;orthogonalLoop=1;jettySize=auto;html=1;entryX=0;entryY=0;entryDx=78;entryDy=240;entryPerimeter=0;" edge="1" parent="kB9tlj2WmAt0og6U4Ecw-99" source="kB9tlj2WmAt0og6U4Ecw-61" target="kB9tlj2WmAt0og6U4Ecw-70">
          <mxGeometry relative="1" as="geometry" />
        </mxCell>
        <mxCell id="kB9tlj2WmAt0og6U4Ecw-88" value="HTTP" style="edgeStyle=orthogonalEdgeStyle;rounded=0;orthogonalLoop=1;jettySize=auto;html=1;entryX=0.005;entryY=0.5;entryDx=0;entryDy=0;entryPerimeter=0;" edge="1" parent="kB9tlj2WmAt0og6U4Ecw-99" source="kB9tlj2WmAt0og6U4Ecw-76" target="kB9tlj2WmAt0og6U4Ecw-79">
          <mxGeometry relative="1" as="geometry" />
        </mxCell>
        <mxCell id="kB9tlj2WmAt0og6U4Ecw-89" style="edgeStyle=orthogonalEdgeStyle;rounded=0;orthogonalLoop=1;jettySize=auto;html=1;entryX=0;entryY=0;entryDx=78;entryDy=240;entryPerimeter=0;" edge="1" parent="kB9tlj2WmAt0og6U4Ecw-99" source="kB9tlj2WmAt0og6U4Ecw-70" target="kB9tlj2WmAt0og6U4Ecw-73">
          <mxGeometry relative="1" as="geometry" />
        </mxCell>
        <mxCell id="kB9tlj2WmAt0og6U4Ecw-90" value="HTTP" style="edgeStyle=orthogonalEdgeStyle;rounded=0;orthogonalLoop=1;jettySize=auto;html=1;entryX=0.502;entryY=0.997;entryDx=0;entryDy=0;entryPerimeter=0;" edge="1" parent="kB9tlj2WmAt0og6U4Ecw-99" source="kB9tlj2WmAt0og6U4Ecw-70" target="kB9tlj2WmAt0og6U4Ecw-76">
          <mxGeometry relative="1" as="geometry" />
        </mxCell>
        <mxCell id="kB9tlj2WmAt0og6U4Ecw-92" value="HTTP" style="edgeStyle=orthogonalEdgeStyle;rounded=0;orthogonalLoop=1;jettySize=auto;html=1;exitX=0;exitY=0;exitDx=68;exitDy=0;exitPerimeter=0;entryX=0.47;entryY=1.001;entryDx=0;entryDy=0;entryPerimeter=0;" edge="1" parent="kB9tlj2WmAt0og6U4Ecw-99" source="kB9tlj2WmAt0og6U4Ecw-76" target="kB9tlj2WmAt0og6U4Ecw-67">
          <mxGeometry relative="1" as="geometry" />
        </mxCell>
        <mxCell id="kB9tlj2WmAt0og6U4Ecw-94" value="HTTP" style="edgeStyle=orthogonalEdgeStyle;rounded=0;orthogonalLoop=1;jettySize=auto;html=1;exitX=0;exitY=0;exitDx=146;exitDy=125;exitPerimeter=0;entryX=0;entryY=0;entryDx=146;entryDy=125;entryPerimeter=0;" edge="1" parent="kB9tlj2WmAt0og6U4Ecw-99" source="kB9tlj2WmAt0og6U4Ecw-70" target="kB9tlj2WmAt0og6U4Ecw-67">
          <mxGeometry relative="1" as="geometry">
            <Array as="points">
              <mxPoint x="705" y="754.0909090909091" />
              <mxPoint x="1375" y="754.0909090909091" />
            </Array>
          </mxGeometry>
        </mxCell>
        <mxCell id="kB9tlj2WmAt0og6U4Ecw-95" value="HTTP" style="edgeStyle=orthogonalEdgeStyle;rounded=0;orthogonalLoop=1;jettySize=auto;html=1;exitX=0;exitY=0;exitDx=78;exitDy=240;exitPerimeter=0;entryX=0;entryY=0;entryDx=0;entryDy=115;entryPerimeter=0;" edge="1" parent="kB9tlj2WmAt0og6U4Ecw-99" source="kB9tlj2WmAt0og6U4Ecw-64" target="kB9tlj2WmAt0og6U4Ecw-70">
          <mxGeometry relative="1" as="geometry" />
        </mxCell>
        <mxCell id="kB9tlj2WmAt0og6U4Ecw-96" value="HTTP" style="edgeStyle=orthogonalEdgeStyle;rounded=0;orthogonalLoop=1;jettySize=auto;html=1;exitX=0;exitY=0;exitDx=68;exitDy=0;exitPerimeter=0;entryX=0;entryY=0;entryDx=0;entryDy=115;entryPerimeter=0;" edge="1" parent="kB9tlj2WmAt0og6U4Ecw-99" source="kB9tlj2WmAt0og6U4Ecw-64" target="kB9tlj2WmAt0og6U4Ecw-82">
          <mxGeometry relative="1" as="geometry" />
        </mxCell>
        <mxCell id="kB9tlj2WmAt0og6U4Ecw-97" value="HTTP" style="edgeStyle=orthogonalEdgeStyle;rounded=0;orthogonalLoop=1;jettySize=auto;html=1;entryX=0;entryY=0;entryDx=0;entryDy=115;entryPerimeter=0;" edge="1" parent="kB9tlj2WmAt0og6U4Ecw-99" source="kB9tlj2WmAt0og6U4Ecw-73" target="kB9tlj2WmAt0og6U4Ecw-67">
          <mxGeometry relative="1" as="geometry" />
        </mxCell>
        <mxCell id="kB9tlj2WmAt0og6U4Ecw-98" style="edgeStyle=orthogonalEdgeStyle;rounded=0;orthogonalLoop=1;jettySize=auto;html=1;entryX=0;entryY=0;entryDx=120;entryDy=95;entryPerimeter=0;" edge="1" parent="kB9tlj2WmAt0og6U4Ecw-99" source="zj32GYR_1dL79aitlgQu-4" target="kB9tlj2WmAt0og6U4Ecw-50">
          <mxGeometry relative="1" as="geometry" />
        </mxCell>
      </root>
    </mxGraphModel>
  </diagram>
</mxfile>
